<svg width="25" height="25" viewBox="0 0 25 25" fill="none" xmlns="http://www.w3.org/2000/svg">
<path d="M14.7809 10.7099C16.3409 10.7099 17.3009 8.42986 17.3009 6.98986C17.3009 5.78986 16.7009 4.34986 15.5009 4.34986C13.9409 4.34986 12.9809 6.62986 12.9809 8.06986C12.9809 9.26986 13.5809 10.7099 14.7809 10.7099ZM10.2209 10.7099C11.4209 10.7099 12.0209 9.26986 12.0209 8.06986C12.0209 6.50986 11.0609 4.22986 9.50094 4.22986C8.30094 4.22986 7.70094 5.66986 7.70094 6.86986C7.58094 8.42986 8.54094 10.7099 10.2209 10.7099ZM19.1009 9.50986C17.5409 9.50986 16.4609 11.6699 16.4609 13.2299C16.4609 14.3099 16.9409 15.3899 18.0209 15.3899C19.5809 15.3899 20.6609 13.2299 20.6609 11.6699C20.6609 10.5899 20.0609 9.50986 19.1009 9.50986ZM8.66094 13.2299C8.66094 11.6699 7.46094 9.50986 6.02094 9.50986C4.94094 9.50986 4.46094 10.5899 4.46094 11.6699C4.46094 13.2299 5.66094 15.3899 7.10094 15.3899C8.18094 15.3899 8.66094 14.3099 8.66094 13.2299ZM12.5009 12.9899C10.1009 12.9899 6.86094 16.8299 6.86094 19.4699C6.86094 20.6699 7.70094 21.0299 8.66094 21.0299C10.1009 21.0299 11.1809 20.0699 12.5009 20.0699C13.7009 20.0699 14.7809 21.0299 16.1009 21.0299C17.0609 21.0299 18.1409 20.7899 18.1409 19.4699C18.1409 16.8299 14.9009 12.9899 12.5009 12.9899Z" fill="#767676"/>
</svg>
