<svg width="25" height="25" viewBox="0 0 25 25" fill="none" xmlns="http://www.w3.org/2000/svg">
<path d="M16.0961 15.6299C15.1093 14.7528 13.835 14.2683 12.5148 14.2683C11.1946 14.2683 9.92034 14.7528 8.93359 15.6299" stroke="#767676" stroke-width="1.96875" stroke-linecap="square" stroke-linejoin="round"/>
<path d="M18.9572 12.7705C17.2096 11.1364 14.9064 10.2273 12.5137 10.2273C10.1211 10.2273 7.81792 11.1364 6.07031 12.7705" stroke="#767676" stroke-width="1.96875" stroke-linecap="square" stroke-linejoin="round"/>
<path d="M21.5011 9.60737C19.0276 7.40084 15.8288 6.1814 12.5142 6.1814C9.19959 6.1814 6.0008 7.40084 3.52734 9.60737" stroke="#767676" stroke-width="1.96875" stroke-linecap="square" stroke-linejoin="round"/>
<path d="M14.5942 18.6298L12.5003 20.9267L10.4219 18.6298C10.6709 18.3157 10.9876 18.0619 11.3485 17.8874C11.7094 17.7129 12.1051 17.6223 12.5059 17.6223C12.9068 17.6223 13.3025 17.7129 13.6633 17.8874C14.0242 18.0619 14.341 18.3157 14.59 18.6298H14.5942Z" fill="#767676"/>
</svg>
