<svg width="25" height="25" viewBox="0 0 25 25" fill="none" xmlns="http://www.w3.org/2000/svg">
<g clip-path="url(#clip0_3767_3866)">
<path d="M8.866 14.6462C8.82813 14.6266 8.79588 14.5978 8.77231 14.5623C8.74874 14.5268 8.73463 14.4859 8.73133 14.4434C8.72802 14.4009 8.73562 14.3583 8.75342 14.3196C8.77121 14.2808 8.79861 14.2473 8.833 14.2222C9.58539 13.6764 10.1456 12.9064 10.4334 12.0226C10.7211 11.1388 10.7216 10.1865 10.4347 9.30244C10.1478 8.41834 9.5883 7.6478 8.83644 7.10132C8.08458 6.55484 7.17898 6.2605 6.2495 6.2605C5.32002 6.2605 4.41442 6.55484 3.66256 7.10132C2.9107 7.6478 2.35121 8.41834 2.06433 9.30244C1.77744 10.1865 1.7779 11.1388 2.06564 12.0226C2.35338 12.9064 2.91361 13.6764 3.666 14.2222C3.70043 14.2472 3.72789 14.2807 3.74577 14.3194C3.76364 14.358 3.77134 14.4006 3.76813 14.4431C3.76493 14.4856 3.75092 14.5265 3.72745 14.5621C3.70397 14.5976 3.67181 14.6266 3.634 14.6462C2.69119 15.1287 1.89978 15.862 1.34684 16.7654C0.793899 17.6687 0.500871 18.707 0.5 19.7662C0.5 19.8988 0.552678 20.026 0.646447 20.1197C0.740215 20.2135 0.867392 20.2662 1 20.2662H11.5C11.6326 20.2662 11.7598 20.2135 11.8536 20.1197C11.9473 20.026 12 19.8988 12 19.7662C11.9991 18.707 11.7061 17.6687 11.1532 16.7654C10.6002 15.862 9.80881 15.1287 8.866 14.6462ZM3.974 9.90717C3.98625 9.87124 4.00649 9.83854 4.0332 9.81156C4.05991 9.78458 4.0924 9.76401 4.12821 9.7514C4.16402 9.73879 4.20223 9.73446 4.23995 9.73875C4.27768 9.74305 4.31394 9.75584 4.346 9.77617C5.2523 10.3571 6.30648 10.6654 7.383 10.6642C7.70677 10.664 8.02994 10.6362 8.349 10.5812C8.38649 10.5745 8.42502 10.5765 8.46163 10.587C8.49823 10.5975 8.53193 10.6163 8.56013 10.6419C8.58834 10.6675 8.61029 10.6992 8.62431 10.7346C8.63833 10.7701 8.64404 10.8082 8.641 10.8462C8.61707 11.1864 8.52088 11.5177 8.35884 11.8179C8.19681 12.118 7.97264 12.3802 7.7013 12.5869C7.42996 12.7936 7.11767 12.9401 6.78525 13.0166C6.45284 13.0932 6.10793 13.0979 5.77352 13.0306C5.43911 12.9634 5.12289 12.8256 4.84593 12.6265C4.56897 12.4273 4.33764 12.1715 4.16735 11.8759C3.99707 11.5803 3.89175 11.2519 3.85841 10.9124C3.82506 10.5729 3.86447 10.2302 3.974 9.90717Z" fill="#767676"/>
<path d="M21.3 14.9354C21.1876 14.8875 21.0616 14.8824 20.9457 14.9211C20.8298 14.9598 20.7321 15.0396 20.671 15.1454L19.462 17.2454C19.4401 17.2834 19.4085 17.315 19.3705 17.3369C19.3325 17.3588 19.2894 17.3704 19.2455 17.3704C19.2016 17.3704 19.1585 17.3588 19.1205 17.3369C19.0825 17.315 19.0509 17.2834 19.029 17.2454L17.821 15.1454C17.7599 15.0396 17.6622 14.9598 17.5463 14.9211C17.4304 14.8824 17.3044 14.8875 17.192 14.9354C16.2455 15.3398 15.4385 16.0132 14.8711 16.8719C14.3037 17.7307 14.0008 18.7371 14 19.7664C14 19.899 14.0527 20.0262 14.1464 20.1199C14.2402 20.2137 14.3674 20.2664 14.5 20.2664H24C24.1326 20.2664 24.2598 20.2137 24.3536 20.1199C24.4473 20.0262 24.5 19.899 24.5 19.7664C24.4985 18.7362 24.1945 17.7292 23.6256 16.8703C23.0567 16.0114 22.248 15.3386 21.3 14.9354Z" fill="#767676"/>
<path d="M23.5008 10.5004C23.5008 9.3732 23.053 8.29219 22.256 7.49516C21.459 6.69813 20.378 6.25037 19.2508 6.25037C18.1236 6.25037 17.0426 6.69813 16.2456 7.49516C15.4486 8.29219 15.0008 9.3732 15.0008 10.5004C15.0519 10.9193 15.0162 11.3443 14.8957 11.7488C14.7753 12.1533 14.5728 12.5286 14.3008 12.8514C14.197 12.9407 14.1127 13.0504 14.053 13.1737C13.9933 13.297 13.9596 13.4312 13.954 13.568C13.9483 13.7049 13.9708 13.8414 14.0201 13.9692C14.0694 14.097 14.1444 14.2133 14.2405 14.3109C14.3366 14.4085 14.4517 14.4853 14.5787 14.5366C14.7057 14.5879 14.8419 14.6125 14.9788 14.609C15.1157 14.6055 15.2505 14.5739 15.3747 14.5161C15.4989 14.4584 15.6099 14.3758 15.7008 14.2734C15.8528 14.1227 15.9923 13.9598 16.1178 13.7864C16.1381 13.7583 16.164 13.7348 16.1938 13.7172C16.2237 13.6996 16.2568 13.6884 16.2912 13.6843C16.3256 13.6802 16.3604 13.6832 16.3936 13.6932C16.4267 13.7032 16.4574 13.7199 16.4838 13.7424C17.253 14.4031 18.2334 14.7664 19.2473 14.7664C20.2613 14.7664 21.2417 14.4031 22.0108 13.7424C22.0373 13.72 22.0681 13.7034 22.1013 13.6934C22.1345 13.6834 22.1694 13.6804 22.2038 13.6844C22.238 13.6882 22.271 13.699 22.3008 13.7163C22.3306 13.7335 22.3564 13.7567 22.3768 13.7844C22.5024 13.958 22.6422 14.1209 22.7948 14.2714C22.8866 14.3701 22.9974 14.4492 23.1206 14.504C23.2437 14.5587 23.3767 14.5881 23.5114 14.5902C23.6462 14.5923 23.78 14.5671 23.9048 14.5162C24.0296 14.4653 24.1428 14.3897 24.2376 14.2939C24.3325 14.1981 24.407 14.0842 24.4566 13.9589C24.5063 13.8336 24.5302 13.6995 24.5267 13.5648C24.5233 13.43 24.4926 13.2974 24.4366 13.1748C24.3806 13.0522 24.3004 12.9422 24.2008 12.8514C23.9286 12.5288 23.726 12.1534 23.6055 11.7489C23.4851 11.3444 23.4494 10.9193 23.5008 10.5004ZM19.2508 12.7664C18.7044 12.7656 18.1768 12.5663 17.7664 12.2056C17.356 11.8448 17.0906 11.3472 17.0198 10.8054C17.0113 10.7422 17.0272 10.6782 17.0644 10.6265C17.1016 10.5748 17.1572 10.5393 17.2198 10.5274C17.5342 10.476 17.84 10.3818 18.1288 10.2474C18.4894 10.0778 18.8037 9.82358 19.0448 9.50637C19.0682 9.4755 19.0985 9.45046 19.1332 9.43323C19.1679 9.416 19.2061 9.40703 19.2448 9.40703C19.2836 9.40703 19.3218 9.416 19.3565 9.43323C19.3912 9.45046 19.4214 9.4755 19.4448 9.50637C19.6858 9.82337 19.9996 10.0776 20.3598 10.2474C20.6489 10.3818 20.9551 10.476 21.2698 10.5274C21.3323 10.5395 21.3877 10.5751 21.4249 10.6267C21.4621 10.6784 21.4781 10.7423 21.4698 10.8054C21.3993 11.3452 21.1357 11.8412 20.7278 12.2016C20.3198 12.5621 19.7952 12.7627 19.2508 12.7664Z" fill="#767676"/>
</g>
<defs>
<clipPath id="clip0_3767_3866">
<rect width="24" height="24" fill="white" transform="translate(0.5 0.629883)"/>
</clipPath>
</defs>
</svg>
