<svg width="25" height="25" viewBox="0 0 25 25" fill="none" xmlns="http://www.w3.org/2000/svg">
<path d="M18.5 6.62988C17.95 6.62988 17.4793 6.43422 17.088 6.04288C16.6967 5.65155 16.5007 5.18055 16.5 4.62988C16.5 4.07988 16.696 3.60922 17.088 3.21788C17.48 2.82655 17.9507 2.63055 18.5 2.62988C19.05 2.62988 19.521 2.82588 19.913 3.21788C20.305 3.60988 20.5007 4.08055 20.5 4.62988C20.5 5.17988 20.3043 5.65088 19.913 6.04288C19.5217 6.43488 19.0507 6.63055 18.5 6.62988ZM17.5 22.6299V14.6299C17.5 13.9632 17.329 13.3632 16.987 12.8299C16.645 12.2965 16.2077 11.8799 15.675 11.5799L16.55 9.00488C16.6833 8.58822 16.9293 8.25488 17.288 8.00488C17.6467 7.75488 18.0507 7.62988 18.5 7.62988C18.95 7.62988 19.3543 7.75488 19.713 8.00488C20.0717 8.25488 20.3173 8.58822 20.45 9.00488L23 16.6299H20.5V22.6299H17.5ZM13 12.1299C12.5833 12.1299 12.2293 11.9842 11.938 11.6929C11.6467 11.4015 11.5007 11.0472 11.5 10.6299C11.5 10.2132 11.646 9.85922 11.938 9.56788C12.23 9.27655 12.584 9.13055 13 9.12988C13.4167 9.12988 13.771 9.27588 14.063 9.56788C14.355 9.85988 14.5007 10.2139 14.5 10.6299C14.5 11.0465 14.3543 11.4009 14.063 11.6929C13.7717 11.9849 13.4173 12.1305 13 12.1299ZM6 6.62988C5.45 6.62988 4.97933 6.43422 4.588 6.04288C4.19667 5.65155 4.00067 5.18055 4 4.62988C4 4.07988 4.196 3.60922 4.588 3.21788C4.98 2.82655 5.45067 2.63055 6 2.62988C6.55 2.62988 7.021 2.82588 7.413 3.21788C7.805 3.60988 8.00067 4.08055 8 4.62988C8 5.17988 7.80433 5.65088 7.413 6.04288C7.02167 6.43488 6.55067 6.63055 6 6.62988ZM4 22.6299V15.6299H2.5V9.62988C2.5 9.07988 2.696 8.60922 3.088 8.21788C3.48 7.82655 3.95067 7.63055 4.5 7.62988H7.5C8.05 7.62988 8.521 7.82588 8.913 8.21788C9.305 8.60988 9.50067 9.08055 9.5 9.62988V15.6299H8V22.6299H4ZM11.5 22.6299V18.6299H10.5V14.6299C10.5 14.2132 10.646 13.8592 10.938 13.5679C11.23 13.2765 11.584 13.1305 12 13.1299H14C14.4167 13.1299 14.771 13.2759 15.063 13.5679C15.355 13.8599 15.5007 14.2139 15.5 14.6299V18.6299H14.5V22.6299H11.5Z" fill="#767676"/>
</svg>
