<svg width="25" height="25" viewBox="0 0 25 25" fill="none" xmlns="http://www.w3.org/2000/svg">
<path d="M12.2695 24.6299C18.8969 24.6299 24.2695 19.2573 24.2695 12.6299C24.2695 6.00247 18.8969 0.629883 12.2695 0.629883C5.64211 0.629883 0.269531 6.00247 0.269531 12.6299C0.269531 19.2573 5.64211 24.6299 12.2695 24.6299Z" fill="#003382"/>
<path fill-rule="evenodd" clip-rule="evenodd" d="M12.5513 12.3246C12.7028 12.4158 12.8521 12.4934 12.9881 12.5891C13.4673 12.928 13.7406 13.4022 13.8409 13.9715C13.9468 14.5699 13.8777 15.1502 13.5838 15.6912C13.3129 16.1896 12.899 16.5323 12.3868 16.7616C11.9476 16.9579 11.4841 17.0638 11.0054 17.0688C9.89556 17.0808 8.7857 17.0782 7.67583 17.0808C7.6545 17.0808 7.63316 17.0771 7.6017 17.0747C7.6017 17.043 7.6017 17.0142 7.6017 16.9856C7.6017 14.3283 7.60116 11.6699 7.60223 9.01231C7.60276 8.51951 8.03023 8.08885 8.52303 8.08725C9.29796 8.08458 10.0729 8.07738 10.8484 8.08991C11.499 8.10085 12.1177 8.24725 12.6542 8.63898C13.1953 9.03418 13.478 9.57498 13.5238 10.2411C13.5622 10.792 13.4497 11.3062 13.1196 11.7558C13.0089 11.9067 12.8654 12.0339 12.7337 12.1688C12.6785 12.2243 12.6153 12.2704 12.5513 12.3246ZM9.3521 15.5387C9.37343 15.543 9.3841 15.5464 9.39423 15.5464C9.93956 15.5454 10.486 15.5595 11.0308 15.5382C11.4252 15.5224 11.7548 15.3459 11.9364 14.9782C12.1457 14.5552 12.1524 14.1152 11.9358 13.6928C11.7286 13.288 11.358 13.1328 10.9252 13.119C10.5689 13.108 10.2118 13.1147 9.85556 13.1174C9.6065 13.1195 9.41796 13.2798 9.37316 13.5256C9.35903 13.6022 9.3529 13.6808 9.3529 13.759C9.3513 14.323 9.35183 14.8875 9.35183 15.4523C9.3521 15.479 9.3521 15.5059 9.3521 15.5387ZM9.35636 11.7179C9.7921 11.7179 10.2158 11.7184 10.639 11.7179C10.699 11.7179 10.758 11.72 10.8177 11.7147C11.1329 11.688 11.3956 11.5656 11.5721 11.2928C11.7332 11.0438 11.7724 10.7672 11.7505 10.4776C11.7121 9.97712 11.379 9.62192 10.8796 9.58378C10.5489 9.55872 10.2158 9.56245 9.88436 9.57178C9.66516 9.57791 9.47343 9.66352 9.3993 9.89418C9.36676 9.99418 9.35556 10.1051 9.3545 10.2118C9.3497 10.684 9.35236 11.1571 9.3529 11.6294C9.35263 11.656 9.35476 11.6824 9.35636 11.7179Z" fill="white"/>
<path fill-rule="evenodd" clip-rule="evenodd" d="M14.7695 16.0928C14.7685 15.5037 15.2487 15.0245 15.8418 15.0234C16.4509 15.0224 16.9357 15.5037 16.9351 16.1082C16.9346 16.6797 16.4405 17.1765 15.8711 17.1776C15.2546 17.1789 14.7706 16.7024 14.7695 16.0928Z" fill="white"/>
</svg>
