<svg width="25" height="25" viewBox="0 0 25 25" fill="none" xmlns="http://www.w3.org/2000/svg">
<g clip-path="url(#clip0_643_10385)">
<path d="M8.62862 1.41932C6.23065 2.25119 4.16264 3.83013 2.72835 5.92419C1.29407 8.01826 0.569104 10.5171 0.659949 13.0536C0.750795 15.5902 1.65266 18.0307 3.23308 20.0168C4.81349 22.0029 6.98916 23.4299 9.44049 24.0881C11.4279 24.6009 13.51 24.6234 15.508 24.1537C17.318 23.7471 18.9913 22.8775 20.3642 21.6299C21.7931 20.2918 22.8303 18.5896 23.3642 16.7062C23.9444 14.658 24.0477 12.5042 23.6661 10.4099H12.5061V15.0393H18.9692C18.8401 15.7777 18.5633 16.4824 18.1554 17.1113C17.7475 17.7401 17.217 18.2803 16.5955 18.6993C15.8064 19.2216 14.9167 19.5729 13.9836 19.7306C13.0479 19.9046 12.0881 19.9046 11.1524 19.7306C10.2039 19.5347 9.30669 19.1432 8.51799 18.5812C7.25077 17.6842 6.29926 16.4098 5.79924 14.9399C5.29091 13.4425 5.29091 11.8192 5.79924 10.3218C6.15517 9.27222 6.74356 8.31657 7.52049 7.52619C8.4096 6.60509 9.53524 5.94668 10.7739 5.62321C12.0126 5.29973 13.3164 5.32369 14.5424 5.69244C15.5001 5.9863 16.3759 6.49996 17.0999 7.19244C17.8286 6.46744 18.5561 5.74057 19.2824 5.01182C19.6574 4.61994 20.0661 4.24682 20.4355 3.84557C19.3302 2.81716 18.033 2.01689 16.618 1.49057C14.0412 0.554921 11.2217 0.529777 8.62862 1.41932Z" fill="white"/>
<path d="M8.62828 1.41925C11.2212 0.529107 14.0406 0.553589 16.6177 1.48862C18.0329 2.01852 19.3296 2.82265 20.4333 3.85488C20.0583 4.25613 19.6627 4.63112 19.2802 5.02112C18.5527 5.74738 17.8258 6.47113 17.0995 7.19238C16.3756 6.4999 15.4998 5.98623 14.542 5.69238C13.3165 5.32233 12.0127 5.29699 10.7737 5.61914C9.53469 5.94129 8.40837 6.59849 7.51828 7.51863C6.74134 8.309 6.15296 9.26466 5.79703 10.3142L1.91016 7.30487C3.30142 4.54593 5.71031 2.43554 8.62828 1.41925Z" fill="#E33629"/>
<path d="M0.880932 10.2862C1.08969 9.25075 1.43654 8.24804 1.91218 7.30493L5.79906 10.3218C5.29072 11.8192 5.29072 13.4425 5.79906 14.9399C4.50406 15.9399 3.20843 16.9449 1.91218 17.9549C0.72184 15.5855 0.358806 12.8859 0.880932 10.2862Z" fill="#F8BD00"/>
<path d="M12.5086 10.408H23.6686C24.0502 12.5022 23.9469 14.6561 23.3668 16.7042C22.8328 18.5876 21.7957 20.2899 20.3668 21.628C19.1124 20.6492 17.8524 19.678 16.598 18.6992C17.2199 18.2797 17.7507 17.739 18.1586 17.1095C18.5665 16.4799 18.8431 15.7745 18.9718 15.0355H12.5086C12.5068 13.4942 12.5086 11.9511 12.5086 10.408Z" fill="#587DBD"/>
<path d="M1.91016 17.9549C3.20641 16.9549 4.50203 15.9499 5.79703 14.9399C6.29805 16.4103 7.25092 17.6847 8.51953 18.5812C9.31069 19.1406 10.2098 19.5289 11.1595 19.7212C12.0953 19.8952 13.0551 19.8952 13.9908 19.7212C14.9238 19.5635 15.8135 19.2122 16.6027 18.6899C17.857 19.6687 19.117 20.6399 20.3714 21.6187C18.9987 22.8669 17.3253 23.7372 15.5152 24.1443C13.5172 24.614 11.435 24.5915 9.44766 24.0787C7.87585 23.659 6.40767 22.9192 5.13516 21.9056C3.7884 20.8361 2.68835 19.4885 1.91016 17.9549Z" fill="#319F43"/>
</g>
<defs>
<clipPath id="clip0_643_10385">
<rect width="24" height="24" fill="white" transform="translate(0.269531 0.629883)"/>
</clipPath>
</defs>
</svg>
