<svg width="23" height="25" viewBox="0 0 23 25" fill="none" xmlns="http://www.w3.org/2000/svg">
<g clip-path="url(#clip0_643_10379)">
<path d="M22.2757 17.6364C22.1683 17.3348 22.0427 17.043 21.9232 16.7726C21.7393 16.3566 21.5467 15.9399 21.3604 15.5371L21.3457 15.5051C19.684 11.9069 17.9006 8.25922 16.0449 4.66394L15.9661 4.51121C15.7768 4.14414 15.5811 3.7645 15.3803 3.3915C15.1421 2.91936 14.8531 2.47461 14.5185 2.06513C14.1415 1.61556 13.6706 1.25411 13.1389 1.00625C12.6068 0.758271 12.0269 0.629807 11.4398 0.629883C10.8528 0.629958 10.2729 0.758571 9.74091 1.00668C9.20925 1.25469 8.73844 1.61625 8.36165 2.06591C8.02739 2.47548 7.73857 2.92012 7.50027 3.39202C7.2978 3.76843 7.10021 4.15156 6.90917 4.52212L6.83604 4.66394C4.98027 8.25957 3.19685 11.907 1.53527 15.505L1.511 15.5574C1.32791 15.9536 1.13861 16.3635 0.957782 16.7724C0.838219 17.0426 0.712895 17.3342 0.605288 17.6366C0.297182 18.4603 0.198985 19.3477 0.319557 20.2188C0.44754 21.0994 0.803614 21.9312 1.35243 22.6316C1.90173 23.3325 2.62454 23.8779 3.44933 24.2137C4.07264 24.4659 4.73893 24.5948 5.41131 24.5933C5.62251 24.5933 5.83362 24.5809 6.04343 24.5564C6.89374 24.4481 7.71394 24.1714 8.45608 23.7425C9.42935 23.1957 10.3905 22.3944 11.4405 21.2494C12.4904 22.3944 13.4516 23.1957 14.4248 23.7425C15.167 24.1714 15.9872 24.4482 16.8375 24.5564C17.0473 24.5809 17.2584 24.5932 17.4697 24.5933C18.142 24.5948 18.8083 24.4659 19.4316 24.2137C20.2564 23.8778 20.9792 23.3324 21.5285 22.6315C22.0773 21.9311 22.4334 21.0994 22.5614 20.2188C22.6819 19.3476 22.5837 18.4602 22.2757 17.6364ZM11.4405 18.8847C10.1407 17.2371 9.30664 15.7072 9.01393 14.4245C8.89403 13.9439 8.86572 13.445 8.9305 12.954C8.98168 12.5939 9.11393 12.2501 9.31729 11.9486C9.56772 11.6239 9.88935 11.3611 10.2574 11.1804C10.6256 10.9996 11.0304 10.9057 11.4407 10.9057C11.8509 10.9057 12.2557 10.9998 12.6239 11.1806C12.9919 11.3614 13.3134 11.6242 13.5638 11.9489C13.7671 12.2505 13.8994 12.5943 13.9506 12.9544C14.0153 13.4457 13.9869 13.9447 13.8668 14.4255C13.5738 15.7079 12.74 17.2375 11.4405 18.8847ZM21.0433 20.0019C20.9538 20.6176 20.7048 21.1992 20.3211 21.6889C19.937 22.1791 19.4316 22.5604 18.8549 22.7953C18.2714 23.029 17.6384 23.1118 17.0145 23.036C16.366 22.9525 15.741 22.739 15.177 22.4084C14.3107 21.9217 13.4338 21.1745 12.4471 20.0786C14.0179 18.1416 14.9988 16.3562 15.362 14.766C15.5254 14.0974 15.5609 13.4038 15.4664 12.722C15.3807 12.1345 15.1627 11.5742 14.8287 11.0834C14.4373 10.5534 13.9268 10.1228 13.3386 9.82621C12.7499 9.52943 12.0998 9.37482 11.4406 9.37479C10.7814 9.37476 10.1313 9.52931 9.54263 9.82603C8.95433 10.1226 8.4439 10.5531 8.05244 11.083C7.71855 11.5737 7.50047 12.1339 7.41466 12.7212C7.32017 13.4027 7.3554 14.096 7.51851 14.7644C7.88156 16.3553 8.86251 18.141 10.4339 20.0787C9.44715 21.1745 8.57023 21.9217 7.70396 22.4085C7.13989 22.7391 6.51491 22.9525 5.86644 23.036C5.24246 23.1118 4.60944 23.029 4.02594 22.7953C3.44923 22.5604 2.94383 22.1791 2.55976 21.6889C2.17609 21.1992 1.92719 20.6176 1.83775 20.0019C1.75178 19.3763 1.82493 18.739 2.05044 18.1491C2.13623 17.9081 2.2365 17.6716 2.36078 17.3907C2.53663 16.9931 2.72322 16.5891 2.9037 16.1984L2.92796 16.1459C4.5803 12.5681 6.35386 8.94082 8.1995 5.36482L8.27298 5.22248C8.46088 4.85786 8.65524 4.48092 8.85125 4.11674C9.03879 3.74128 9.26575 3.38684 9.52831 3.05943C9.76114 2.77824 10.0532 2.55194 10.3836 2.39668C10.8818 2.1625 11.4438 2.10048 11.9811 2.22038C12.5185 2.34028 13.0007 2.6353 13.3522 3.05908C13.6149 3.38625 13.842 3.74059 14.0294 4.11604C14.2236 4.477 14.4162 4.85052 14.6025 5.21175L14.6814 5.365C16.527 8.94056 18.3005 12.5677 19.953 16.1462L19.9679 16.1784C20.1515 16.5757 20.3414 16.9863 20.5201 17.3907C20.6446 17.6721 20.745 17.9088 20.8306 18.1489C21.056 18.7389 21.1291 19.3762 21.0433 20.0019Z" fill="#FF385C"/>
</g>
<defs>
<clipPath id="clip0_643_10379">
<rect width="22.3418" height="24" fill="white" transform="translate(0.269531 0.629883)"/>
</clipPath>
</defs>
</svg>
