<svg width="32" height="33" viewBox="0 0 32 33" fill="none" xmlns="http://www.w3.org/2000/svg">
<path d="M14 17.22L11.41 14.63L10 16.04L14 20.04L22 12.04L20.59 10.63L14 17.22Z" fill="#219C76"/>
<path d="M16 30.63L9.82401 27.337C8.06334 26.4003 6.59097 25.0019 5.56493 23.2917C4.53888 21.5816 3.99789 19.6243 4.00001 17.63V4.63C4.00054 4.09973 4.21142 3.59133 4.58638 3.21638C4.96134 2.84142 5.46974 2.63053 6.00001 2.63H26C26.5303 2.63053 27.0387 2.84142 27.4136 3.21638C27.7886 3.59133 27.9995 4.09973 28 4.63V17.63C28.0021 19.6243 27.4611 21.5816 26.4351 23.2917C25.409 25.0019 23.9367 26.4003 22.176 27.337L16 30.63ZM6.00001 4.63V17.63C5.99835 19.2618 6.44111 20.8633 7.28077 22.2625C8.12043 23.6617 9.32528 24.8058 10.766 25.572L16 28.363L21.234 25.573C22.6749 24.8067 23.8798 23.6624 24.7195 22.263C25.5592 20.8636 26.0018 19.262 26 17.63V4.63H6.00001Z" fill="#219C76"/>
</svg>
