<?xml version="1.0" standalone="no"?>
<!DOCTYPE svg PUBLIC "-//W3C//DTD SVG 20010904//EN"
 "http://www.w3.org/TR/2001/REC-SVG-20010904/DTD/svg10.dtd">
<svg version="1.0" xmlns="http://www.w3.org/2000/svg"
 width="512.000000pt" height="512.000000pt" viewBox="0 0 512.000000 512.000000"
 preserveAspectRatio="xMidYMid meet">

<g transform="translate(0.000000,512.000000) scale(0.100000,-0.100000)"
fill="#000000" stroke="none">
<path d="M1310 4553 c-78 -32 -129 -114 -170 -270 l-11 -43 -60 0 c-50 0 -64
-4 -84 -25 -16 -15 -25 -36 -25 -55 0 -19 9 -40 25 -55 20 -21 34 -25 82 -25
l58 0 -3 -135 c-3 -121 4 -197 23 -247 5 -13 -6 -23 -47 -44 -82 -41 -166
-105 -239 -180 -155 -163 -175 -213 -353 -862 -80 -293 -146 -550 -146 -573 0
-22 7 -56 15 -75 14 -34 13 -37 -9 -67 -46 -62 -46 -69 -46 -694 l0 -594 25
-24 c32 -33 78 -33 110 0 l25 24 0 591 0 591 25 24 c49 50 135 15 135 -55 0
-41 39 -80 80 -80 19 0 40 9 55 25 32 32 33 83 1 152 l-24 51 28 27 c38 37 69
98 126 253 l49 133 5 -793 c6 -895 -1 -831 86 -907 58 -51 112 -65 227 -59 96
5 144 22 214 75 l32 25 33 -25 c71 -53 119 -70 215 -75 115 -6 169 8 227 59
87 76 80 12 86 907 l5 793 49 -133 c65 -176 86 -217 136 -262 77 -69 116 -81
275 -81 125 0 144 3 181 22 70 37 105 89 164 243 29 77 55 139 56 137 1 -1
-49 -270 -112 -597 -62 -327 -113 -605 -114 -618 0 -13 11 -34 25 -47 23 -24
29 -25 159 -25 l134 0 4 -132 c3 -119 5 -137 27 -171 13 -21 42 -50 64 -65 37
-24 50 -27 131 -27 103 0 166 22 223 77 l31 30 29 -27 c15 -15 53 -39 83 -54
47 -22 68 -26 146 -26 81 0 95 3 131 27 22 15 51 44 64 65 22 34 24 52 27 171
l4 132 134 0 c130 0 136 1 159 25 14 13 25 33 25 43 0 11 -50 280 -110 598
-61 319 -112 593 -115 609 -3 17 22 -40 56 -125 71 -178 84 -200 144 -236 40
-23 43 -28 35 -50 -28 -73 7 -144 70 -144 41 0 80 39 80 80 0 70 86 105 135
55 l25 -24 0 -591 0 -591 25 -24 c32 -33 78 -33 110 0 l25 24 0 592 c0 420 -3
603 -12 630 -15 50 -69 114 -119 140 -35 18 -39 22 -32 47 20 70 8 113 -142
497 -81 209 -161 407 -178 440 -83 167 -237 319 -402 396 -28 13 -52 25 -54
26 -2 1 8 29 23 62 27 60 41 151 53 328 7 107 -14 179 -67 237 l-38 42 18 54
c33 95 24 165 -31 246 -119 176 -478 176 -598 0 -55 -81 -64 -151 -31 -246
l18 -54 -38 -42 c-53 -58 -74 -130 -67 -237 12 -177 26 -268 53 -328 15 -33
25 -61 23 -62 -2 -1 -26 -13 -54 -26 -165 -77 -320 -229 -402 -396 -17 -33
-61 -139 -98 -235 -53 -135 -70 -170 -76 -155 -5 11 -43 146 -85 300 -102 374
-143 462 -288 614 -75 77 -146 130 -234 175 -41 21 -52 31 -47 44 19 50 26
126 23 247 l-3 135 58 0 c48 0 62 4 82 25 16 15 25 36 25 55 0 19 -9 40 -25
55 -20 21 -34 25 -84 25 l-60 0 -11 43 c-48 184 -109 265 -209 275 -29 2 -63
-2 -91 -13 -70 -26 -105 -29 -134 -10 -26 17 -129 29 -156 18z m110 -173 c54
-28 145 -27 204 2 55 26 67 19 96 -58 33 -90 48 -84 -200 -84 -245 0 -231 -5
-205 71 33 97 41 102 105 69z m2192 -76 c65 -22 93 -55 93 -109 0 -60 -12 -71
-69 -56 -25 6 -77 11 -116 11 -39 0 -91 -5 -116 -11 -54 -14 -63 -7 -71 48 -4
32 0 45 21 70 49 58 165 79 258 47z m-1858 -255 c10 -54 7 -240 -6 -283 -26
-86 -136 -166 -228 -166 -92 0 -202 80 -228 166 -13 43 -16 229 -6 283 l7 31
227 0 228 0 6 -31z m1921 -94 c73 -37 105 -81 105 -141 l0 -44 -27 12 c-16 7
-58 31 -94 55 -117 77 -162 78 -274 3 -38 -25 -82 -51 -97 -58 -28 -12 -28
-11 -28 29 0 74 37 117 136 158 77 32 201 26 279 -14z m-115 -245 c33 -26 131
-76 183 -94 20 -6 22 -33 5 -90 -16 -55 -99 -138 -154 -154 -94 -28 -169 -8
-239 63 -69 69 -100 170 -55 182 38 10 155 71 185 97 17 14 32 25 34 26 2 0
20 -14 41 -30z m-2192 -238 c49 -23 70 -27 152 -27 82 0 103 4 153 27 32 15
72 38 89 52 29 23 33 23 67 9 62 -26 171 -102 227 -157 66 -67 137 -176 168
-258 13 -35 86 -292 162 -571 106 -391 136 -512 128 -525 -16 -26 -50 -26
-101 -1 -57 27 -54 21 -218 464 -81 219 -133 346 -146 358 -30 25 -75 22 -104
-8 l-25 -24 0 -366 0 -365 -400 0 -400 0 0 365 0 366 -25 24 c-29 30 -74 33
-104 8 -13 -12 -65 -139 -146 -358 -154 -416 -162 -434 -215 -464 -45 -25 -88
-25 -104 1 -8 13 19 126 118 490 145 534 173 625 215 700 72 128 190 238 327
308 l58 29 33 -25 c18 -14 59 -37 91 -52z m2007 -243 c26 -11 79 -23 118 -26
61 -5 84 -1 152 22 92 31 112 28 226 -32 124 -64 232 -174 297 -302 22 -42
103 -241 182 -444 131 -337 141 -369 131 -396 -20 -47 -84 -66 -113 -33 -9 9
-80 181 -157 382 -94 241 -149 371 -164 383 -42 36 -127 -1 -127 -55 0 -11 10
-51 21 -90 26 -84 23 -188 -7 -239 -34 -57 -67 -74 -146 -74 -62 0 -72 -3 -89
-24 -28 -35 -22 -88 13 -114 37 -27 123 -34 182 -14 l45 15 10 -51 c23 -113
191 -1000 191 -1008 0 -5 -263 -9 -620 -9 -357 0 -620 4 -620 9 0 8 168 895
191 1008 l10 52 41 -15 c140 -49 271 33 194 123 -22 25 -30 28 -89 28 -51 0
-72 5 -94 21 -72 54 -92 166 -53 297 26 88 22 120 -20 142 -38 20 -63 19 -88
-2 -13 -11 -73 -152 -157 -373 -75 -195 -141 -359 -146 -365 -5 -5 -9 0 -9 15
0 14 -12 63 -25 109 -14 47 -25 93 -25 104 0 26 204 548 245 626 78 149 203
261 363 327 70 29 78 29 137 3z m-1455 -1884 l0 -576 -26 -25 c-24 -24 -30
-26 -109 -23 -90 4 -118 17 -159 73 -20 27 -21 43 -26 478 l-5 450 -24 19
c-30 24 -72 24 -102 0 l-24 -19 -5 -450 c-5 -435 -6 -451 -26 -478 -41 -56
-69 -69 -159 -73 -79 -3 -85 -1 -109 23 l-26 25 0 576 0 575 400 0 400 0 0
-575z m1518 -455 c-6 -106 -55 -160 -153 -168 -81 -7 -85 -1 -85 129 l0 109
121 0 121 0 -4 -70z m402 -39 c0 -130 -4 -136 -85 -129 -98 8 -147 62 -153
168 l-4 70 121 0 121 0 0 -109z"/>
</g>
</svg>
