<svg width="105" height="24" viewBox="0 0 105 24" fill="none" xmlns="http://www.w3.org/2000/svg">
<g clip-path="url(#clip0_987_15288)">
<path d="M24 12C24 5.37262 18.6274 0 12 0C5.37262 0 0 5.37262 0 12C0 17.9895 4.38825 22.954 10.125 23.8542V15.4688H7.07812V12H10.125V9.35625C10.125 6.34875 11.9166 4.6875 14.6576 4.6875C15.9705 4.6875 17.3438 4.92188 17.3438 4.92188V7.875H15.8306C14.3399 7.875 13.875 8.80003 13.875 9.74906V12H17.2031L16.6711 15.4688H13.875V23.8542C19.6117 22.954 24 17.9896 24 12Z" fill="#1877F2"/>
<path d="M16.6711 15.4688L17.2031 12H13.875V9.74906C13.875 8.79994 14.3399 7.875 15.8306 7.875H17.3438V4.92188C17.3438 4.92188 15.9705 4.6875 14.6575 4.6875C11.9166 4.6875 10.125 6.34875 10.125 9.35625V12H7.07812V15.4688H10.125V23.8542C10.7453 23.9514 11.3722 24.0002 12 24C12.6278 24.0002 13.2547 23.9514 13.875 23.8542V15.4688H16.6711Z" fill="white"/>
</g>
<path d="M33.424 17.5V6.14H40.88V7.132H34.544V11.308H39.888V12.236H34.544V17.5H33.424ZM40.903 15.1C40.903 14.5773 41.0523 14.1293 41.351 13.756C41.6497 13.372 42.0603 13.0787 42.583 12.876C43.1163 12.6627 43.7297 12.556 44.423 12.556C44.8283 12.556 45.2497 12.588 45.687 12.652C46.1243 12.716 46.5137 12.812 46.855 12.94V12.236C46.855 11.532 46.647 10.972 46.231 10.556C45.815 10.14 45.239 9.932 44.503 9.932C44.055 9.932 43.6123 10.0173 43.175 10.188C42.7483 10.348 42.3003 10.588 41.831 10.908L41.415 10.14C41.959 9.76667 42.4923 9.48933 43.015 9.308C43.5377 9.116 44.071 9.02 44.615 9.02C45.639 9.02 46.4497 9.31333 47.047 9.9C47.6443 10.4867 47.943 11.2973 47.943 12.332V16.188C47.943 16.3373 47.975 16.4493 48.039 16.524C48.103 16.588 48.2043 16.6253 48.343 16.636V17.5C48.2257 17.5107 48.1243 17.5213 48.039 17.532C47.9537 17.5427 47.8897 17.5427 47.847 17.532C47.5803 17.5213 47.3777 17.436 47.239 17.276C47.1003 17.116 47.0257 16.9453 47.015 16.764L46.999 16.156C46.6257 16.636 46.1403 17.0093 45.543 17.276C44.9457 17.532 44.3377 17.66 43.719 17.66C43.1857 17.66 42.7003 17.548 42.263 17.324C41.8363 17.0893 41.5003 16.78 41.255 16.396C41.0203 16.0013 40.903 15.5693 40.903 15.1ZM46.487 15.74C46.6043 15.5907 46.695 15.4467 46.759 15.308C46.823 15.1693 46.855 15.0467 46.855 14.94V13.724C46.4923 13.5853 46.1137 13.4787 45.719 13.404C45.335 13.3293 44.9457 13.292 44.551 13.292C43.7723 13.292 43.143 13.4467 42.663 13.756C42.183 14.0653 41.943 14.4867 41.943 15.02C41.943 15.3293 42.023 15.6227 42.183 15.9C42.343 16.1667 42.5777 16.3907 42.887 16.572C43.1963 16.7427 43.559 16.828 43.975 16.828C44.4977 16.828 44.983 16.7267 45.431 16.524C45.8897 16.3213 46.2417 16.06 46.487 15.74ZM53.9098 17.66C53.3018 17.66 52.7418 17.548 52.2298 17.324C51.7284 17.0893 51.2858 16.7693 50.9018 16.364C50.5284 15.9587 50.2351 15.4947 50.0218 14.972C49.8191 14.4493 49.7178 13.8947 49.7178 13.308C49.7178 12.5187 49.8938 11.7987 50.2458 11.148C50.5978 10.4973 51.0884 9.98 51.7178 9.596C52.3471 9.212 53.0724 9.02 53.8938 9.02C54.6724 9.02 55.3604 9.20133 55.9578 9.564C56.5551 9.916 56.9978 10.396 57.2858 11.004L56.2298 11.34C55.9951 10.9133 55.6644 10.5827 55.2378 10.348C54.8218 10.1027 54.3578 9.98 53.8458 9.98C53.2911 9.98 52.7844 10.124 52.3258 10.412C51.8671 10.7 51.4991 11.0947 51.2218 11.596C50.9551 12.0973 50.8218 12.668 50.8218 13.308C50.8218 13.9373 50.9604 14.508 51.2378 15.02C51.5151 15.532 51.8831 15.9427 52.3418 16.252C52.8004 16.5507 53.3071 16.7 53.8618 16.7C54.2244 16.7 54.5711 16.636 54.9018 16.508C55.2431 16.38 55.5364 16.2093 55.7818 15.996C56.0378 15.772 56.2084 15.532 56.2938 15.276L57.3658 15.596C57.2164 15.9907 56.9658 16.348 56.6138 16.668C56.2724 16.9773 55.8671 17.2227 55.3978 17.404C54.9391 17.5747 54.4431 17.66 53.9098 17.66ZM62.5969 17.66C61.9995 17.66 61.4449 17.548 60.9329 17.324C60.4209 17.0893 59.9782 16.7747 59.6049 16.38C59.2315 15.9747 58.9382 15.5107 58.7249 14.988C58.5222 14.4653 58.4209 13.9053 58.4209 13.308C58.4209 12.5293 58.5969 11.8147 58.9489 11.164C59.3115 10.5133 59.8075 9.996 60.4369 9.612C61.0662 9.21733 61.7809 9.02 62.5809 9.02C63.4022 9.02 64.1169 9.21733 64.7249 9.612C65.3435 10.0067 65.8289 10.5293 66.1809 11.18C66.5329 11.82 66.7089 12.524 66.7089 13.292C66.7089 13.3773 66.7089 13.4627 66.7089 13.548C66.7089 13.6227 66.7035 13.6813 66.6929 13.724H59.5569C59.6102 14.3213 59.7755 14.8547 60.0529 15.324C60.3409 15.7827 60.7089 16.1507 61.1569 16.428C61.6155 16.6947 62.1115 16.828 62.6449 16.828C63.1889 16.828 63.7009 16.6893 64.1809 16.412C64.6715 16.1347 65.0129 15.772 65.2049 15.324L66.1489 15.58C65.9782 15.9747 65.7169 16.332 65.3649 16.652C65.0129 16.972 64.5969 17.2227 64.1169 17.404C63.6475 17.5747 63.1409 17.66 62.5969 17.66ZM59.5249 12.94H65.6849C65.6422 12.332 65.4769 11.7987 65.1889 11.34C64.9115 10.8813 64.5435 10.524 64.0849 10.268C63.6369 10.0013 63.1409 9.868 62.5969 9.868C62.0529 9.868 61.5569 10.0013 61.1089 10.268C60.6609 10.524 60.2929 10.8867 60.0049 11.356C59.7275 11.8147 59.5675 12.3427 59.5249 12.94ZM72.4675 17.66C71.8168 17.66 71.2142 17.4947 70.6595 17.164C70.1048 16.8227 69.6728 16.396 69.3635 15.884V17.5H68.3875V5.82H69.4755V10.908C69.8488 10.3427 70.2968 9.88933 70.8195 9.548C71.3422 9.196 71.9502 9.02 72.6435 9.02C73.2302 9.02 73.7528 9.14267 74.2115 9.388C74.6808 9.63333 75.0808 9.964 75.4115 10.38C75.7422 10.7853 75.9928 11.2493 76.1635 11.772C76.3342 12.284 76.4195 12.812 76.4195 13.356C76.4195 13.9427 76.3182 14.492 76.1155 15.004C75.9235 15.516 75.6462 15.9747 75.2835 16.38C74.9208 16.7747 74.4995 17.0893 74.0195 17.324C73.5502 17.548 73.0328 17.66 72.4675 17.66ZM72.2115 16.7C72.6595 16.7 73.0755 16.6093 73.4595 16.428C73.8435 16.2467 74.1742 15.996 74.4515 15.676C74.7288 15.356 74.9422 14.9987 75.0915 14.604C75.2408 14.1987 75.3155 13.7827 75.3155 13.356C75.3155 12.7693 75.1875 12.22 74.9315 11.708C74.6862 11.1853 74.3395 10.7693 73.8915 10.46C73.4542 10.14 72.9368 9.98 72.3395 9.98C71.9128 9.98 71.5128 10.076 71.1395 10.268C70.7768 10.46 70.4515 10.716 70.1635 11.036C69.8862 11.3453 69.6568 11.6867 69.4755 12.06V14.652C69.5182 14.94 69.6302 15.212 69.8115 15.468C69.9928 15.7133 70.2168 15.9267 70.4835 16.108C70.7608 16.2893 71.0488 16.4333 71.3475 16.54C71.6462 16.6467 71.9342 16.7 72.2115 16.7ZM81.8145 17.66C81.2172 17.66 80.6625 17.548 80.1505 17.324C79.6492 17.0893 79.2118 16.7747 78.8385 16.38C78.4758 15.9747 78.1932 15.516 77.9905 15.004C77.7878 14.4813 77.6865 13.932 77.6865 13.356C77.6865 12.7587 77.7878 12.204 77.9905 11.692C78.1932 11.1693 78.4812 10.7107 78.8545 10.316C79.2278 9.91067 79.6652 9.596 80.1665 9.372C80.6785 9.13733 81.2332 9.02 81.8305 9.02C82.4278 9.02 82.9772 9.13733 83.4785 9.372C83.9798 9.596 84.4172 9.91067 84.7905 10.316C85.1638 10.7107 85.4518 11.1693 85.6545 11.692C85.8572 12.204 85.9585 12.7587 85.9585 13.356C85.9585 13.932 85.8572 14.4813 85.6545 15.004C85.4518 15.516 85.1638 15.9747 84.7905 16.38C84.4278 16.7747 83.9905 17.0893 83.4785 17.324C82.9772 17.548 82.4225 17.66 81.8145 17.66ZM78.7905 13.372C78.7905 13.9907 78.9238 14.556 79.1905 15.068C79.4678 15.5693 79.8358 15.9693 80.2945 16.268C80.7532 16.556 81.2598 16.7 81.8145 16.7C82.3692 16.7 82.8758 16.5507 83.3345 16.252C83.7932 15.9533 84.1612 15.548 84.4385 15.036C84.7158 14.5133 84.8545 13.948 84.8545 13.34C84.8545 12.7213 84.7158 12.156 84.4385 11.644C84.1612 11.132 83.7932 10.7267 83.3345 10.428C82.8758 10.1293 82.3692 9.98 81.8145 9.98C81.2598 9.98 80.7532 10.1347 80.2945 10.444C79.8465 10.7533 79.4838 11.164 79.2065 11.676C78.9292 12.1773 78.7905 12.7427 78.7905 13.372ZM91.3301 17.66C90.7328 17.66 90.1781 17.548 89.6661 17.324C89.1648 17.0893 88.7275 16.7747 88.3541 16.38C87.9915 15.9747 87.7088 15.516 87.5061 15.004C87.3035 14.4813 87.2021 13.932 87.2021 13.356C87.2021 12.7587 87.3035 12.204 87.5061 11.692C87.7088 11.1693 87.9968 10.7107 88.3701 10.316C88.7435 9.91067 89.1808 9.596 89.6821 9.372C90.1941 9.13733 90.7488 9.02 91.3461 9.02C91.9435 9.02 92.4928 9.13733 92.9941 9.372C93.4955 9.596 93.9328 9.91067 94.3061 10.316C94.6795 10.7107 94.9675 11.1693 95.1701 11.692C95.3728 12.204 95.4741 12.7587 95.4741 13.356C95.4741 13.932 95.3728 14.4813 95.1701 15.004C94.9675 15.516 94.6795 15.9747 94.3061 16.38C93.9435 16.7747 93.5061 17.0893 92.9941 17.324C92.4928 17.548 91.9381 17.66 91.3301 17.66ZM88.3061 13.372C88.3061 13.9907 88.4395 14.556 88.7061 15.068C88.9835 15.5693 89.3515 15.9693 89.8101 16.268C90.2688 16.556 90.7755 16.7 91.3301 16.7C91.8848 16.7 92.3915 16.5507 92.8501 16.252C93.3088 15.9533 93.6768 15.548 93.9541 15.036C94.2315 14.5133 94.3701 13.948 94.3701 13.34C94.3701 12.7213 94.2315 12.156 93.9541 11.644C93.6768 11.132 93.3088 10.7267 92.8501 10.428C92.3915 10.1293 91.8848 9.98 91.3301 9.98C90.7755 9.98 90.2688 10.1347 89.8101 10.444C89.3621 10.7533 88.9995 11.164 88.7221 11.676C88.4448 12.1773 88.3061 12.7427 88.3061 13.372ZM103.246 17.5L100.158 13.228L98.3818 14.892V17.5H97.2938V5.82H98.3818V13.724L103.102 9.18H104.302L100.894 12.588L104.43 17.5H103.246Z" fill="#767676"/>
<defs>
<clipPath id="clip0_987_15288">
<rect width="24" height="24" fill="white"/>
</clipPath>
</defs>
</svg>
