<svg width="87" height="24" viewBox="0 0 87 24" fill="none" xmlns="http://www.w3.org/2000/svg">
<path fill-rule="evenodd" clip-rule="evenodd" d="M5.16983 11.9993C5.16983 11.2199 5.2992 10.4726 5.53038 9.7717L1.48612 6.68347C0.697894 8.28374 0.253906 10.0871 0.253906 11.9993C0.253906 13.9101 0.697519 15.7121 1.48443 17.3114L5.52645 14.2172C5.29751 13.5195 5.16983 12.775 5.16983 11.9993Z" fill="#FBBC05"/>
<path fill-rule="evenodd" clip-rule="evenodd" d="M12.2728 4.90899C13.9661 4.90899 15.4954 5.50897 16.6971 6.49069L20.1928 2.99992C18.0626 1.14541 15.3316 0 12.2728 0C7.52392 0 3.44254 2.71567 1.48828 6.68381L5.53235 9.77204C6.4642 6.94349 9.12044 4.90899 12.2728 4.90899Z" fill="#EA4335"/>
<path fill-rule="evenodd" clip-rule="evenodd" d="M12.2728 19.0908C9.12063 19.0908 6.46439 17.0563 5.53254 14.2278L1.48828 17.3154C3.44254 21.2841 7.52392 23.9998 12.2728 23.9998C15.2037 23.9998 18.0021 22.959 20.1022 21.0091L16.2634 18.0414C15.1803 18.7237 13.8162 19.0908 12.2728 19.0908Z" fill="#34A853"/>
<path fill-rule="evenodd" clip-rule="evenodd" d="M23.7438 11.9997C23.7438 11.2906 23.6345 10.5269 23.4706 9.81799H12.2734V14.4542H18.7188C18.3965 16.0349 17.5194 17.2501 16.2641 18.0409L20.1028 21.0086C22.3089 18.9612 23.7438 15.911 23.7438 11.9997Z" fill="#4285F4"/>
<path d="M37.984 17.58C37.2267 17.58 36.5227 17.42 35.872 17.1C35.2213 16.7693 34.656 16.3267 34.176 15.772C33.696 15.2173 33.3227 14.5987 33.056 13.916C32.8 13.2333 32.672 12.5293 32.672 11.804C32.672 11.036 32.8 10.3107 33.056 9.628C33.3227 8.93467 33.6907 8.32133 34.16 7.788C34.6293 7.25467 35.184 6.83333 35.824 6.524C36.464 6.21467 37.1627 6.06 37.92 6.06C39.04 6.06 39.952 6.28933 40.656 6.748C41.36 7.20667 41.8933 7.804 42.256 8.54L41.392 9.116C41.0293 8.412 40.544 7.89467 39.936 7.564C39.328 7.23333 38.6507 7.068 37.904 7.068C37.2747 7.068 36.704 7.20133 36.192 7.468C35.6907 7.73467 35.2587 8.092 34.896 8.54C34.5333 8.988 34.256 9.49467 34.064 10.06C33.8827 10.6253 33.792 11.212 33.792 11.82C33.792 12.46 33.8987 13.068 34.112 13.644C34.3253 14.2093 34.6293 14.716 35.024 15.164C35.4187 15.6013 35.872 15.948 36.384 16.204C36.9067 16.4493 37.4667 16.572 38.064 16.572C38.7573 16.572 39.4133 16.4013 40.032 16.06C40.6507 15.708 41.2427 15.1693 41.808 14.444V15.628C40.7307 16.9293 39.456 17.58 37.984 17.58ZM41.632 12.78H39.104V11.916H42.576V17.5H41.632V12.78ZM48.2051 17.66C47.6078 17.66 47.0531 17.548 46.5411 17.324C46.0398 17.0893 45.6025 16.7747 45.2291 16.38C44.8665 15.9747 44.5838 15.516 44.3811 15.004C44.1785 14.4813 44.0771 13.932 44.0771 13.356C44.0771 12.7587 44.1785 12.204 44.3811 11.692C44.5838 11.1693 44.8718 10.7107 45.2451 10.316C45.6185 9.91067 46.0558 9.596 46.5571 9.372C47.0691 9.13733 47.6238 9.02 48.2211 9.02C48.8185 9.02 49.3678 9.13733 49.8691 9.372C50.3705 9.596 50.8078 9.91067 51.1811 10.316C51.5545 10.7107 51.8425 11.1693 52.0451 11.692C52.2478 12.204 52.3491 12.7587 52.3491 13.356C52.3491 13.932 52.2478 14.4813 52.0451 15.004C51.8425 15.516 51.5545 15.9747 51.1811 16.38C50.8185 16.7747 50.3811 17.0893 49.8691 17.324C49.3678 17.548 48.8131 17.66 48.2051 17.66ZM45.1811 13.372C45.1811 13.9907 45.3145 14.556 45.5811 15.068C45.8585 15.5693 46.2265 15.9693 46.6851 16.268C47.1438 16.556 47.6505 16.7 48.2051 16.7C48.7598 16.7 49.2665 16.5507 49.7251 16.252C50.1838 15.9533 50.5518 15.548 50.8291 15.036C51.1065 14.5133 51.2451 13.948 51.2451 13.34C51.2451 12.7213 51.1065 12.156 50.8291 11.644C50.5518 11.132 50.1838 10.7267 49.7251 10.428C49.2665 10.1293 48.7598 9.98 48.2051 9.98C47.6505 9.98 47.1438 10.1347 46.6851 10.444C46.2371 10.7533 45.8745 11.164 45.5971 11.676C45.3198 12.1773 45.1811 12.7427 45.1811 13.372ZM57.7208 17.66C57.1234 17.66 56.5688 17.548 56.0568 17.324C55.5554 17.0893 55.1181 16.7747 54.7448 16.38C54.3821 15.9747 54.0994 15.516 53.8968 15.004C53.6941 14.4813 53.5928 13.932 53.5928 13.356C53.5928 12.7587 53.6941 12.204 53.8968 11.692C54.0994 11.1693 54.3874 10.7107 54.7608 10.316C55.1341 9.91067 55.5714 9.596 56.0728 9.372C56.5848 9.13733 57.1394 9.02 57.7368 9.02C58.3341 9.02 58.8834 9.13733 59.3848 9.372C59.8861 9.596 60.3234 9.91067 60.6968 10.316C61.0701 10.7107 61.3581 11.1693 61.5608 11.692C61.7634 12.204 61.8648 12.7587 61.8648 13.356C61.8648 13.932 61.7634 14.4813 61.5608 15.004C61.3581 15.516 61.0701 15.9747 60.6968 16.38C60.3341 16.7747 59.8968 17.0893 59.3848 17.324C58.8834 17.548 58.3288 17.66 57.7208 17.66ZM54.6968 13.372C54.6968 13.9907 54.8301 14.556 55.0968 15.068C55.3741 15.5693 55.7421 15.9693 56.2008 16.268C56.6594 16.556 57.1661 16.7 57.7208 16.7C58.2754 16.7 58.7821 16.5507 59.2408 16.252C59.6994 15.9533 60.0674 15.548 60.3448 15.036C60.6221 14.5133 60.7608 13.948 60.7608 13.34C60.7608 12.7213 60.6221 12.156 60.3448 11.644C60.0674 11.132 59.6994 10.7267 59.2408 10.428C58.7821 10.1293 58.2754 9.98 57.7208 9.98C57.1661 9.98 56.6594 10.1347 56.2008 10.444C55.7528 10.7533 55.3901 11.164 55.1128 11.676C54.8354 12.1773 54.6968 12.7427 54.6968 13.372ZM67.0284 17.612C66.463 17.612 65.9404 17.4947 65.4604 17.26C64.9804 17.0253 64.5644 16.7107 64.2124 16.316C63.871 15.9107 63.6044 15.452 63.4124 14.94C63.2204 14.428 63.1244 13.9 63.1244 13.356C63.1244 12.7693 63.215 12.22 63.3964 11.708C63.5884 11.1853 63.855 10.7213 64.1964 10.316C64.5484 9.91067 64.959 9.596 65.4284 9.372C65.8977 9.13733 66.4204 9.02 66.9964 9.02C67.711 9.02 68.3297 9.20133 68.8524 9.564C69.3857 9.92667 69.8337 10.3747 70.1964 10.908V9.164H71.1724V17.532C71.1724 18.3 70.9857 18.9453 70.6124 19.468C70.2497 20.0013 69.7537 20.4013 69.1244 20.668C68.5057 20.9347 67.8284 21.068 67.0924 21.068C66.143 21.068 65.375 20.8973 64.7884 20.556C64.2017 20.2147 63.7217 19.756 63.3484 19.18L64.0204 18.652C64.351 19.1747 64.7884 19.564 65.3324 19.82C65.887 20.076 66.4737 20.204 67.0924 20.204C67.6364 20.204 68.1324 20.1027 68.5804 19.9C69.039 19.708 69.4017 19.4147 69.6684 19.02C69.9457 18.6253 70.0844 18.1293 70.0844 17.532V15.884C69.7644 16.4067 69.327 16.828 68.7724 17.148C68.2177 17.4573 67.6364 17.612 67.0284 17.612ZM67.3324 16.7C67.663 16.7 67.9777 16.6413 68.2764 16.524C68.5857 16.4067 68.8684 16.252 69.1244 16.06C69.3804 15.8573 69.5937 15.6333 69.7644 15.388C69.935 15.1427 70.0417 14.892 70.0844 14.636V12.06C69.9244 11.6547 69.695 11.2973 69.3964 10.988C69.0977 10.668 68.7564 10.4227 68.3724 10.252C67.999 10.0707 67.6097 9.98 67.2044 9.98C66.735 9.98 66.3137 10.0813 65.9404 10.284C65.5777 10.476 65.2684 10.7373 65.0124 11.068C64.767 11.388 64.575 11.7507 64.4364 12.156C64.2977 12.5613 64.2284 12.9667 64.2284 13.372C64.2284 13.82 64.3084 14.2467 64.4684 14.652C64.6284 15.0467 64.847 15.404 65.1244 15.724C65.4124 16.0333 65.743 16.2733 66.1164 16.444C66.5004 16.6147 66.9057 16.7 67.3324 16.7ZM73.623 5.82H74.711V15.612C74.711 16.028 74.7857 16.3 74.935 16.428C75.0843 16.556 75.2657 16.62 75.479 16.62C75.671 16.62 75.863 16.5987 76.055 16.556C76.247 16.5133 76.4123 16.4707 76.551 16.428L76.743 17.308C76.5403 17.3933 76.2897 17.4627 75.991 17.516C75.703 17.5693 75.4523 17.596 75.239 17.596C74.7483 17.596 74.3537 17.452 74.055 17.164C73.767 16.876 73.623 16.4813 73.623 15.98V5.82ZM81.5344 17.66C80.937 17.66 80.3824 17.548 79.8704 17.324C79.3584 17.0893 78.9157 16.7747 78.5424 16.38C78.169 15.9747 77.8757 15.5107 77.6624 14.988C77.4597 14.4653 77.3584 13.9053 77.3584 13.308C77.3584 12.5293 77.5344 11.8147 77.8864 11.164C78.249 10.5133 78.745 9.996 79.3744 9.612C80.0037 9.21733 80.7184 9.02 81.5184 9.02C82.3397 9.02 83.0544 9.21733 83.6624 9.612C84.281 10.0067 84.7664 10.5293 85.1184 11.18C85.4704 11.82 85.6464 12.524 85.6464 13.292C85.6464 13.3773 85.6464 13.4627 85.6464 13.548C85.6464 13.6227 85.641 13.6813 85.6304 13.724H78.4944C78.5477 14.3213 78.713 14.8547 78.9904 15.324C79.2784 15.7827 79.6464 16.1507 80.0944 16.428C80.553 16.6947 81.049 16.828 81.5824 16.828C82.1264 16.828 82.6384 16.6893 83.1184 16.412C83.609 16.1347 83.9504 15.772 84.1424 15.324L85.0864 15.58C84.9157 15.9747 84.6544 16.332 84.3024 16.652C83.9504 16.972 83.5344 17.2227 83.0544 17.404C82.585 17.5747 82.0784 17.66 81.5344 17.66ZM78.4624 12.94H84.6224C84.5797 12.332 84.4144 11.7987 84.1264 11.34C83.849 10.8813 83.481 10.524 83.0224 10.268C82.5744 10.0013 82.0784 9.868 81.5344 9.868C80.9904 9.868 80.4944 10.0013 80.0464 10.268C79.5984 10.524 79.2304 10.8867 78.9424 11.356C78.665 11.8147 78.505 12.3427 78.4624 12.94Z" fill="#767676"/>
</svg>
