<svg width="13" height="13" viewBox="0 0 13 13" fill="none" xmlns="http://www.w3.org/2000/svg">
<g clip-path="url(#clip0_1_49)">
<path d="M6.15299 4.459C6.15299 4.183 6.48899 3.959 6.90299 3.959C7.31699 3.959 7.65299 4.183 7.65299 4.459C7.65299 4.735 7.31699 4.959 6.90299 4.959C6.48899 4.959 6.15299 4.735 6.15299 4.459ZM12.3225 8.0295C12.996 8.6485 13.073 9.735 12.497 10.5025L12.109 11.0195C11.4245 11.932 10.335 12.4765 9.19449 12.4765H4.61149C3.47099 12.4765 2.38149 11.932 1.69699 11.02L1.30949 10.503C0.733489 9.7355 0.809989 8.6485 1.48399 8.029C1.67749 7.851 1.90599 7.72 2.15049 7.6395L1.25299 6.338C0.974489 5.968 0.852489 5.4915 0.920989 5.013C0.989489 4.5345 1.23999 4.111 1.62649 3.821C2.17449 3.41 2.87799 3.3655 3.46149 3.631C3.51699 3.3455 3.61349 3.0735 3.74399 2.819C3.27049 2.253 3.29299 1.4125 3.82499 0.880996C4.38749 0.318496 5.29949 0.318496 5.86199 0.880996C5.92999 0.948996 5.97849 1.0115 6.01149 1.07C6.29649 0.999996 6.59449 0.958996 6.90299 0.958996C7.20949 0.958996 7.50549 0.999496 7.78899 1.0685C7.81449 1.0305 7.84399 0.990996 7.88149 0.948496C8.40649 0.350996 9.31699 0.292496 9.91449 0.817496C10.5035 1.3355 10.566 2.226 10.0645 2.8235C10.1945 3.078 10.29 3.3495 10.345 3.635C10.9315 3.3665 11.6325 3.4115 12.1785 3.82C12.5655 4.11 12.816 4.5335 12.8845 5.012C12.953 5.491 12.831 5.9675 12.5405 6.3545L11.654 7.6405C11.899 7.7205 12.128 7.851 12.322 8.0295H12.3225ZM6.90299 1.959C5.52449 1.959 4.40299 2.9685 4.40299 4.209C4.40299 5.4495 5.52449 6.459 6.90299 6.459C8.28149 6.459 9.40299 5.4495 9.40299 4.209C9.40299 2.9685 8.28149 1.959 6.90299 1.959ZM4.84949 11.4765C4.70099 10.588 4.21249 9.927 4.20649 9.9195L3.37099 8.887C3.22299 8.6895 2.97649 8.5485 2.70999 8.5485C2.50699 8.5485 2.31399 8.624 2.16049 8.7655C1.85999 9.0415 1.83749 9.5415 2.10899 9.9035L2.49649 10.42C2.99299 11.0815 3.78349 11.4765 4.61099 11.4765H4.84949ZM8.82049 9.168L9.67749 8.2345C9.85249 7.9985 10.1105 7.815 10.4025 7.695L11.7295 5.771C11.871 5.5815 11.9255 5.3685 11.895 5.1545C11.864 4.94 11.752 4.751 11.5795 4.6215C11.2215 4.3555 10.714 4.427 10.446 4.7835C10.446 4.7835 10.2965 4.998 10.2935 5.002C9.91099 6.4115 8.53799 7.4595 6.90299 7.4595C5.26799 7.4595 3.89399 6.4105 3.51199 5C3.51049 4.998 3.34949 4.769 3.34949 4.769C3.09249 4.4255 2.58349 4.3535 2.22649 4.621C1.86949 4.889 1.79699 5.3975 2.06449 5.7545L3.40449 7.6975C3.69949 7.821 3.96449 8.0125 4.15949 8.273L4.99499 9.3055C5.03649 9.3605 5.70349 10.2625 5.85949 11.477H7.91999C8.03049 9.976 8.64049 9.328 8.81999 9.1685L8.82049 9.168ZM11.6455 8.7655C11.473 8.6065 11.252 8.535 11.019 8.5515C10.7885 8.573 10.5845 8.687 10.4455 8.8725C10.4455 8.8725 9.49749 9.9045 9.47599 9.922C9.47649 9.922 9.02699 10.3305 8.92349 11.4765H9.19449C10.022 11.4765 10.8125 11.0815 11.309 10.4195L11.697 9.9025C11.968 9.5405 11.9455 9.041 11.6455 8.7655Z" fill="black"/>
</g>
<defs>
<clipPath id="clip0_1_49">
<rect width="12" height="12" fill="white" transform="translate(0.902985 0.458996)"/>
</clipPath>
</defs>
</svg>
