<svg width="24" height="25" viewBox="0 0 24 25" fill="none" xmlns="http://www.w3.org/2000/svg">
<path d="M14.8 8.63L16 9.83L9.2 16.63L8 15.43L14.8 8.63ZM4 4.63H20C21.11 4.63 22 5.52 22 6.63V10.63C21.4696 10.63 20.9609 10.8407 20.5858 11.2158C20.2107 11.5909 20 12.0996 20 12.63C20 13.1604 20.2107 13.6691 20.5858 14.0442C20.9609 14.4193 21.4696 14.63 22 14.63V18.63C22 19.74 21.11 20.63 20 20.63H4C3.46957 20.63 2.96086 20.4193 2.58579 20.0442C2.21071 19.6691 2 19.1604 2 18.63V14.63C3.11 14.63 4 13.74 4 12.63C4 12.0996 3.78929 11.5909 3.41421 11.2158C3.03914 10.8407 2.53043 10.63 2 10.63V6.63C2 6.09957 2.21071 5.59086 2.58579 5.21579C2.96086 4.84072 3.46957 4.63 4 4.63ZM4 6.63V9.17C4.60768 9.5204 5.11236 10.0247 5.46325 10.6321C5.81415 11.2394 5.9989 11.9285 5.9989 12.63C5.9989 13.3315 5.81415 14.0206 5.46325 14.628C5.11236 15.2353 4.60768 15.7396 4 16.09V18.63H20V16.09C19.3923 15.7396 18.8876 15.2353 18.5367 14.628C18.1858 14.0206 18.0011 13.3315 18.0011 12.63C18.0011 11.9285 18.1858 11.2394 18.5367 10.6321C18.8876 10.0247 19.3923 9.5204 20 9.17V6.63H4ZM9.5 8.63C10.33 8.63 11 9.3 11 10.13C11 10.96 10.33 11.63 9.5 11.63C8.67 11.63 8 10.96 8 10.13C8 9.3 8.67 8.63 9.5 8.63ZM14.5 13.63C15.33 13.63 16 14.3 16 15.13C16 15.96 15.33 16.63 14.5 16.63C13.67 16.63 13 15.96 13 15.13C13 14.3 13.67 13.63 14.5 13.63Z" fill="#202A37"/>
</svg>
