<svg width="24" height="25" viewBox="0 0 24 25" fill="none" xmlns="http://www.w3.org/2000/svg">
<path d="M7 7.63H6C5.46957 7.63 4.96086 7.84072 4.58579 8.21579C4.21071 8.59086 4 9.09957 4 9.63V18.63C4 19.1604 4.21071 19.6691 4.58579 20.0442C4.96086 20.4193 5.46957 20.63 6 20.63H15C15.5304 20.63 16.0391 20.4193 16.4142 20.0442C16.7893 19.6691 17 19.1604 17 18.63V17.63" stroke="#da6633" stroke-width="2" stroke-linecap="round" stroke-linejoin="round"/>
<path d="M16 5.62999L19 8.62999M20.385 7.21499C20.7788 6.82114 21.0001 6.28697 21.0001 5.72999C21.0001 5.17301 20.7788 4.63884 20.385 4.24499C19.9912 3.85114 19.457 3.62988 18.9 3.62988C18.343 3.62988 17.8088 3.85114 17.415 4.24499L9 12.63V15.63H12L20.385 7.21499Z" stroke="#da6633" stroke-width="2" stroke-linecap="round" stroke-linejoin="round"/>
</svg>
