<svg width="13" height="13" viewBox="0 0 13 13" fill="none" xmlns="http://www.w3.org/2000/svg">
<g clip-path="url(#clip0_1_44)">
<path d="M10.903 4.459C10.3725 4.459 9.86384 4.24828 9.48877 3.87321C9.1137 3.49814 8.90298 2.98943 8.90298 2.459C8.90298 1.92856 9.1137 1.41986 9.48877 1.04478C9.86384 0.66971 10.3725 0.458996 10.903 0.458996C11.4334 0.458996 11.9421 0.66971 12.3172 1.04478C12.6923 1.41986 12.903 1.92856 12.903 2.459C12.903 2.98943 12.6923 3.49814 12.3172 3.87321C11.9421 4.24828 11.4334 4.459 10.903 4.459ZM10.903 1.459C10.6378 1.459 10.3834 1.56435 10.1959 1.75189C10.0083 1.93943 9.90298 2.19378 9.90298 2.459C9.90298 2.72421 10.0083 2.97857 10.1959 3.1661C10.3834 3.35364 10.6378 3.459 10.903 3.459C11.1682 3.459 11.4226 3.35364 11.6101 3.1661C11.7976 2.97857 11.903 2.72421 11.903 2.459C11.903 2.19378 11.7976 1.93943 11.6101 1.75189C11.4226 1.56435 11.1682 1.459 10.903 1.459ZM11.629 12.459H7.19748C6.97332 12.461 6.7526 12.4038 6.55762 12.2931C6.36263 12.1825 6.20029 12.0224 6.08698 11.829C5.97594 11.6426 5.91612 11.4302 5.91357 11.2132C5.91103 10.9962 5.96584 10.7825 6.07248 10.5935L8.29048 6.614C8.40469 6.41676 8.56875 6.25302 8.7662 6.13919C8.96366 6.02536 9.18757 5.96544 9.41548 5.96544C9.6434 5.96544 9.86731 6.02536 10.0648 6.13919C10.2622 6.25302 10.4263 6.41676 10.5405 6.614L12.753 10.5905C12.8598 10.7797 12.9148 10.9938 12.9123 11.2111C12.9099 11.4284 12.8501 11.6412 12.739 11.828C12.6257 12.0214 12.4635 12.1816 12.2686 12.2924C12.0738 12.4032 11.8531 12.4606 11.629 12.459ZM9.41448 6.959C9.36392 6.9578 9.31397 6.97033 9.26995 6.99524C9.22593 7.02016 9.18949 7.05653 9.16448 7.1005L6.94648 11.08C6.92504 11.1169 6.914 11.159 6.91453 11.2017C6.91506 11.2444 6.92714 11.2861 6.94948 11.3225C6.97509 11.3656 7.01181 11.401 7.05579 11.425C7.09977 11.449 7.1494 11.4607 7.19948 11.459H11.631C11.6811 11.4605 11.7308 11.4485 11.7747 11.4243C11.8187 11.4002 11.8554 11.3646 11.881 11.3215C11.9029 11.2845 11.9145 11.2423 11.9145 11.1992C11.9145 11.1562 11.9029 11.114 11.881 11.077L9.66498 7.101C9.64009 7.05679 9.60361 7.0202 9.55947 6.99518C9.51533 6.97016 9.4652 6.95765 9.41448 6.959ZM4.90298 11.959C4.90298 11.8264 4.8503 11.6992 4.75653 11.6054C4.66277 11.5117 4.53559 11.459 4.40298 11.459H2.57798C2.46105 11.4589 2.34614 11.4285 2.24454 11.3706C2.14294 11.3127 2.05812 11.2294 1.99842 11.1289C1.93872 11.0283 1.90618 10.914 1.904 10.7971C1.90182 10.6802 1.93007 10.5647 1.98598 10.462L5.31198 4.312C5.36887 4.2048 5.45402 4.11523 5.55821 4.053C5.66239 3.99077 5.78163 3.95826 5.90298 3.959C6.02445 3.958 6.14386 3.9904 6.24817 4.05265C6.35248 4.1149 6.43769 4.20462 6.49448 4.312L7.10798 5.4455C7.13924 5.50328 7.18157 5.55434 7.23255 5.59576C7.28354 5.63718 7.34219 5.66816 7.40515 5.68691C7.4681 5.70567 7.53414 5.71184 7.59948 5.70508C7.66483 5.69832 7.7282 5.67875 7.78598 5.6475C7.84376 5.61624 7.89482 5.57391 7.93625 5.52292C7.97767 5.47194 8.00864 5.41329 8.0274 5.35033C8.04616 5.28737 8.05233 5.22134 8.04557 5.15599C8.0388 5.09065 8.01924 5.02728 7.98798 4.9695L7.37498 3.8365C7.2317 3.57112 7.0193 3.34944 6.7603 3.19493C6.50129 3.04043 6.20532 2.95886 5.90373 2.95886C5.60214 2.95886 5.30617 3.04043 5.04716 3.19493C4.78816 3.34944 4.57576 3.57112 4.43248 3.8365L1.10598 9.9865C0.968032 10.2416 0.898656 10.5281 0.904638 10.8181C0.91062 11.108 0.991755 11.3914 1.14011 11.6406C1.28846 11.8898 1.49895 12.0962 1.75099 12.2397C2.00302 12.3831 2.28798 12.4587 2.57798 12.459H4.40298C4.53559 12.459 4.66277 12.4063 4.75653 12.3125C4.8503 12.2188 4.90298 12.0916 4.90298 11.959Z" fill="black"/>
</g>
<defs>
<clipPath id="clip0_1_44">
<rect width="12" height="12" fill="white" transform="translate(0.902985 0.458996)"/>
</clipPath>
</defs>
</svg>
